REM DIRINDEX 1\5,1\2\6,1\2\7,1\3\8,1\3\9,1\4\10,1\4\11,1\4\12
REM DIRNAME folder01,folder02,folder03,folder04,folder05,folder06,folder07,folder08,folder09,folder10,folder11,folder12
TITLE ""
FILE "EJE_DB3000_5th_4B_28.mp3" MP3
  TRACK 01 AUDIO
    TITLE "0:"
    INDEX 01 00:00:00
  TRACK 02 AUDIO
    TITLE "10:cjc026_09246"
    INDEX 01 00:00:05
  TRACK 03 AUDIO
    TITLE "0:"
    INDEX 01 00:01:13
  TRACK 04 AUDIO
    TITLE "11:cjc026_09247"
    INDEX 01 00:01:38
  TRACK 05 AUDIO
    TITLE "0:"
    INDEX 01 00:02:34
  TRACK 06 AUDIO
    TITLE "12:cjc026_09248"
    INDEX 01 00:02:59
  TRACK 07 AUDIO
    TITLE "0:"
    INDEX 01 00:03:66
  TRACK 08 AUDIO
    TITLE "10:cjc026_09249"
    INDEX 01 00:04:19
  TRACK 09 AUDIO
    TITLE "0:"
    INDEX 01 00:05:07
  TRACK 10 AUDIO
    TITLE "11:cjc026_09250"
    INDEX 01 00:05:34
  TRACK 11 AUDIO
    TITLE "0:"
    INDEX 01 00:06:39
  TRACK 12 AUDIO
    TITLE "12:cjc026_09251"
    INDEX 01 00:06:67
  TRACK 13 AUDIO
    TITLE "0:"
    INDEX 01 00:07:54
  TRACK 14 AUDIO
    TITLE "10:cjc026_09252"
    INDEX 01 00:08:05
  TRACK 15 AUDIO
    TITLE "0:"
    INDEX 01 00:08:70
  TRACK 16 AUDIO
    TITLE "11:cjc026_09253"
    INDEX 01 00:09:22
  TRACK 17 AUDIO
    TITLE "0:"
    INDEX 01 00:10:37
  TRACK 18 AUDIO
    TITLE "12:cjc026_09254"
    INDEX 01 00:10:63
  TRACK 19 AUDIO
    TITLE "0:"
    INDEX 01 00:11:54
  TRACK 20 AUDIO
    TITLE "10:cjc026_09255"
    INDEX 01 00:12:05
  TRACK 21 AUDIO
    TITLE "0:"
    INDEX 01 00:12:69
  TRACK 22 AUDIO
    TITLE "11:cjc026_09256"
    INDEX 01 00:13:22
  TRACK 23 AUDIO
    TITLE "0:"
    INDEX 01 00:14:23
  TRACK 24 AUDIO
    TITLE "12:cjc026_09257"
    INDEX 01 00:14:49
  TRACK 25 AUDIO
    TITLE "0:"
    INDEX 01 00:15:38
  TRACK 26 AUDIO
    TITLE "10:cjc026_09258"
    INDEX 01 00:15:66
  TRACK 27 AUDIO
    TITLE "0:"
    INDEX 01 00:16:71
  TRACK 28 AUDIO
    TITLE "11:cjc026_09259"
    INDEX 01 00:17:21
  TRACK 29 AUDIO
    TITLE "0:"
    INDEX 01 00:18:17
  TRACK 30 AUDIO
    TITLE "12:cjc026_09260"
    INDEX 01 00:18:44
  TRACK 31 AUDIO
    TITLE "0:"
    INDEX 01 00:19:50
  TRACK 32 AUDIO
    TITLE "10:cjc026_09261"
    INDEX 01 00:20:00
  TRACK 33 AUDIO
    TITLE "0:"
    INDEX 01 00:21:09
  TRACK 34 AUDIO
    TITLE "11:cjc026_09262"
    INDEX 01 00:21:33
  TRACK 35 AUDIO
    TITLE "0:"
    INDEX 01 00:22:38
  TRACK 36 AUDIO
    TITLE "12:cjc026_09263"
    INDEX 01 00:22:64
  TRACK 37 AUDIO
    TITLE "0:"
    INDEX 01 00:23:71
  TRACK 38 AUDIO
    TITLE "10:cjc026_09264"
    INDEX 01 00:24:20
  TRACK 39 AUDIO
    TITLE "0:"
    INDEX 01 00:25:19
  TRACK 40 AUDIO
    TITLE "11:cjc026_09265"
    INDEX 01 00:25:43
  TRACK 41 AUDIO
    TITLE "0:"
    INDEX 01 00:26:54
  TRACK 42 AUDIO
    TITLE "12:cjc026_09266"
    INDEX 01 00:27:02
  TRACK 43 AUDIO
    TITLE "0:"
    INDEX 01 00:28:00
  TRACK 44 AUDIO
    TITLE "10:cjc026_09267"
    INDEX 01 00:28:25
  TRACK 45 AUDIO
    TITLE "0:"
    INDEX 01 00:29:23
  TRACK 46 AUDIO
    TITLE "11:cjc026_09268"
    INDEX 01 00:29:48
  TRACK 47 AUDIO
    TITLE "0:"
    INDEX 01 00:30:63
  TRACK 48 AUDIO
    TITLE "12:cjc026_09269"
    INDEX 01 00:31:14
  TRACK 49 AUDIO
    TITLE "0:"
    INDEX 01 00:32:11
  TRACK 50 AUDIO
    TITLE "10:cjc026_09270"
    INDEX 01 00:32:39
  TRACK 51 AUDIO
    TITLE "0:"
    INDEX 01 00:33:28
  TRACK 52 AUDIO
    TITLE "11:cjc026_09271"
    INDEX 01 00:33:58
  TRACK 53 AUDIO
    TITLE "0:"
    INDEX 01 00:34:61
  TRACK 54 AUDIO
    TITLE "12:cjc026_09272"
    INDEX 01 00:35:14
  TRACK 55 AUDIO
    TITLE "0:"
    INDEX 01 00:36:03
  TRACK 56 AUDIO
    TITLE "10:cjc026_09273"
    INDEX 01 00:36:31
  TRACK 57 AUDIO
    TITLE "0:"
    INDEX 01 00:37:20
  TRACK 58 AUDIO
    TITLE "11:cjc026_09274"
    INDEX 01 00:37:46
  TRACK 59 AUDIO
    TITLE "0:"
    INDEX 01 00:38:33
  TRACK 60 AUDIO
    TITLE "12:cjc026_09275"
    INDEX 01 00:38:59
  TRACK 61 AUDIO
    TITLE "0:"
    INDEX 01 00:39:51
  TRACK 62 AUDIO
    TITLE "10:cjc026_09276"
    INDEX 01 00:40:03
  TRACK 63 AUDIO
    TITLE "0:"
    INDEX 01 00:40:64
  TRACK 64 AUDIO
    TITLE "11:cjc026_09277"
    INDEX 01 00:41:16
  TRACK 65 AUDIO
    TITLE "0:"
    INDEX 01 00:42:25
  TRACK 66 AUDIO
    TITLE "12:cjc026_09278"
    INDEX 01 00:42:53
  TRACK 67 AUDIO
    TITLE "0:"
    INDEX 01 00:43:39
  TRACK 68 AUDIO
    TITLE "10:cjc026_09279"
    INDEX 01 00:43:64
  TRACK 69 AUDIO
    TITLE "0:"
    INDEX 01 00:44:54
  TRACK 70 AUDIO
    TITLE "11:cjc026_09280"
    INDEX 01 00:45:06
  TRACK 71 AUDIO
    TITLE "0:"
    INDEX 01 00:46:04
  TRACK 72 AUDIO
    TITLE "12:cjc026_09281"
    INDEX 01 00:46:27
  TRACK 73 AUDIO
    TITLE "0:"
    INDEX 01 00:47:17
  TRACK 74 AUDIO
    TITLE "10:cjc026_09282"
    INDEX 01 00:47:44
  TRACK 75 AUDIO
    TITLE "0:"
    INDEX 01 00:48:46
  TRACK 76 AUDIO
    TITLE "11:cjc026_09283"
    INDEX 01 00:48:73
  TRACK 77 AUDIO
    TITLE "0:"
    INDEX 01 00:50:11
  TRACK 78 AUDIO
    TITLE "12:cjc026_09284"
    INDEX 01 00:50:35
  TRACK 79 AUDIO
    TITLE "0:"
    INDEX 01 00:51:38
